<?xml version="1.0" encoding="utf-8"?><svg xmlns="http://www.w3.org/2000/svg" xmlns:xlink="http://www.w3.org/1999/xlink" width="3000" height="2000" preserveAspectRatio="xMidYMid" viewBox="0 0 3000 2000" style="z-index:1;margin-right:-2px;display:block;background-color:rgb(241, 242, 243);animation-play-state:paused" ><g transform="translate(1500,1000) scale(1,1) translate(-1500,-1000)" style="transform:matrix(1, 0, 0, 1, 0, 0);animation-play-state:paused" ><g transform="translate(2386.544321777116,437.38186527205346) scale(100)" opacity="0.14" style="transform:matrix(100, 0, 0, 100, 2386.54, 437.382);opacity:0.14;animation-play-state:paused" ><path d="M7.35 0 C7.35 7.77 15.146227253015848 4.157787873376898 9.652007563196374 9.652007563196372 S7.7700000000000005 7.349999999999999 4.500576986866523e-16 7.35 S-4.157787873376898 15.146227253015848 -9.652007563196372 9.652007563196374 S-7.349999999999999 7.7700000000000005 -7.35 9.001153973733046e-16 S-15.14622725301585 -4.157787873376897 -9.652007563196376 -9.652007563196372 S-7.770000000000001 -7.349999999999998 -1.3501730960599567e-15 -7.35 S4.157787873376897 -15.146227253015848 9.652007563196372 -9.652007563196376 S7.349999999999998 -7.770000000000001 7.35 -1.800230794746609e-15" fill="#d21bdc" stroke-width="0" transform="matrix(1,0,0,1,0,0)" style="transform:matrix(1, 0, 0, 1, 0, 0);animation-play-state:paused" ></path></g>
<g transform="translate(2563.853186132539,324.8582383264642) scale(100)" opacity="0.14" style="transform:matrix(100, 0, 0, 100, 2563.85, 324.858);opacity:0.14;animation-play-state:paused" ><path d="M8.819999999999999 0 C8.819999999999999 9.324 18.17547270361902 4.989345448052278 11.582409075835649 11.582409075835647 S9.324 8.819999999999999 5.400692384239827e-16 8.819999999999999 S-4.989345448052278 18.17547270361902 -11.582409075835647 11.582409075835649 S-8.819999999999997 9.324000000000002 -8.819999999999999 1.0801384768479654e-15 S-18.17547270361902 -4.989345448052277 -11.58240907583565 -11.582409075835647 S-9.324000000000002 -8.819999999999997 -1.620207715271948e-15 -8.819999999999999 S4.989345448052275 -18.17547270361902 11.582409075835645 -11.58240907583565 S8.819999999999997 -9.324000000000002 8.819999999999999 -2.1602769536959307e-15" fill="#de53e5" stroke-width="0" transform="matrix(1,0,0,1,0,0)" style="transform:matrix(1, 0, 0, 1, 0, 0);animation-play-state:paused" ></path></g>
<g transform="translate(2989.3944605855545,54.801533657049845) scale(100)" opacity="0.14" style="transform:matrix(100, 0, 0, 100, 2989.39, 54.8015);opacity:0.14;animation-play-state:paused" ><path d="M12.347999999999999 0 C12.347999999999999 13.0536 25.445661785066626 6.985083627273191 16.215372706169912 16.21537270616991 S13.0536 12.347999999999999 7.560969337935758e-16 12.347999999999999 S-6.985083627273191 25.445661785066626 -16.21537270616991 16.215372706169912 S-12.347999999999997 13.053600000000001 -12.347999999999999 1.5121938675871517e-15 S-25.445661785066626 -6.985083627273191 -16.215372706169912 -16.21537270616991 S-13.053600000000001 -12.347999999999997 -2.2682908013807273e-15 -12.347999999999999 S6.9850836272731875 -25.445661785066626 16.215372706169905 -16.215372706169912 S12.347999999999995 -13.053600000000003 12.347999999999999 -3.0243877351743034e-15" fill="#ea6cf0" stroke-width="0" transform="matrix(1,0,0,1,0,0)" style="transform:matrix(1, 0, 0, 1, 0, 0);animation-play-state:paused" ></path></g>
<g transform="translate(3883.0311369368874,-512.3175461487201) scale(100)" opacity="0.14" style="transform:matrix(100, 0, 0, 100, 3883.03, -512.318);opacity:0.14;animation-play-state:paused" ><path d="M19.7568 0 C19.7568 20.88576 40.7130588561066 11.176133803637104 25.944596329871857 25.944596329871853 S20.88576 19.7568 1.2097550940697212e-15 19.7568 S-11.176133803637104 40.7130588561066 -25.944596329871853 25.944596329871857 S-19.756799999999995 20.885760000000005 -19.7568 2.4195101881394425e-15 S-40.713058856106606 -11.176133803637102 -25.94459632987186 -25.944596329871853 S-20.885760000000005 -19.756799999999995 -3.629265282209164e-15 -19.7568 S11.176133803637095 -40.713058856106606 25.944596329871846 -25.94459632987186 S19.756799999999995 -20.885760000000005 19.7568 -4.839020376278885e-15" fill="#ed7ff3" stroke-width="0" transform="matrix(1,0,0,1,0,0)" style="transform:matrix(1, 0, 0, 1, 0, 0);animation-play-state:paused" ></path></g>
<g transform="translate(5789.456046486398,-1722.1715830676967) scale(100)" opacity="0.14" style="transform:matrix(100, 0, 0, 100, 5789.46, -1722.17);opacity:0.14;animation-play-state:paused" ><path d="M35.56224 0 C35.56224 37.594368 73.28350594099189 20.11704084654679 46.70027339376934 46.700273393769336 S37.594368 35.56224 2.1775591693254987e-15 35.56224 S-20.11704084654679 73.28350594099189 -46.700273393769336 46.70027339376934 S-35.562239999999996 37.59436800000001 -35.56224 4.355118338650997e-15 S-73.28350594099189 -20.117040846546786 -46.70027339376935 -46.700273393769336 S-37.59436800000001 -35.562239999999996 -6.532677507976495e-15 -35.56224 S20.11704084654678 -73.28350594099189 46.70027339376933 -46.70027339376935 S35.562239999999996 -37.59436800000001 35.56224 -8.710236677301995e-15" fill="#fcc9ff" stroke-width="0" transform="matrix(1,0,0,1,0,0)" style="transform:matrix(1, 0, 0, 1, 0, 0);animation-play-state:paused" ></path></g></g></svg>